<svg width="146" height="76" viewBox="0 0 146 76" fill="none" xmlns="http://www.w3.org/2000/svg">
<circle cx="28.5" cy="53.3291" r="4" fill="#444444"/>
<path d="M11.3333 69.3291H8.21331V61.3251H11.2373C11.8933 61.3251 12.4013 61.5171 12.7613 61.9011C13.1213 62.2851 13.3013 62.7731 13.3013 63.3651C13.3013 63.8531 13.1813 64.2571 12.9413 64.5771C12.7093 64.8891 12.4093 65.0971 12.0413 65.2011C12.4333 65.2571 12.7613 65.4771 13.0253 65.8611C13.2973 66.2371 13.4333 66.6731 13.4333 67.1691C13.4333 67.8171 13.2533 68.3411 12.8933 68.7411C12.5333 69.1331 12.0133 69.3291 11.3333 69.3291ZM10.9493 64.6611C11.2773 64.6611 11.5213 64.5651 11.6813 64.3731C11.8493 64.1731 11.9333 63.9091 11.9333 63.5811C11.9333 63.2531 11.8493 62.9891 11.6813 62.7891C11.5133 62.5891 11.2693 62.4891 10.9493 62.4891H9.54531V64.6611H10.9493ZM10.9973 68.1531C11.3493 68.1531 11.6133 68.0531 11.7893 67.8531C11.9733 67.6451 12.0653 67.3571 12.0653 66.9891C12.0653 66.6531 11.9733 66.3771 11.7893 66.1611C11.6053 65.9451 11.3413 65.8371 10.9973 65.8371H9.54531V68.1531H10.9973ZM18.6898 68.5971C18.2498 69.1811 17.6378 69.4731 16.8538 69.4731C16.0698 69.4731 15.4538 69.1811 15.0058 68.5971C14.5658 68.0131 14.3458 67.2891 14.3458 66.4251C14.3458 65.5611 14.5658 64.8411 15.0058 64.2651C15.4458 63.6811 16.0618 63.3891 16.8538 63.3891C17.6458 63.3891 18.2618 63.6811 18.7018 64.2651C19.1418 64.8411 19.3618 65.5611 19.3618 66.4251C19.3618 67.2891 19.1378 68.0131 18.6898 68.5971ZM15.9058 67.8411C16.1218 68.2251 16.4378 68.4171 16.8538 68.4171C17.2698 68.4171 17.5858 68.2251 17.8018 67.8411C18.0178 67.4571 18.1258 66.9851 18.1258 66.4251C18.1258 65.8651 18.0178 65.3971 17.8018 65.0211C17.5858 64.6371 17.2698 64.4451 16.8538 64.4451C16.4378 64.4451 16.1218 64.6371 15.9058 65.0211C15.6898 65.3971 15.5818 65.8651 15.5818 66.4251C15.5818 66.9851 15.6898 67.4571 15.9058 67.8411ZM24.7172 68.6451C24.3412 69.1971 23.8292 69.4731 23.1812 69.4731C22.5332 69.4731 22.0372 69.1651 21.6932 68.5491V71.5371H20.4932V63.5331H21.6932V64.3011C21.8612 64.0131 22.0772 63.7891 22.3412 63.6291C22.6052 63.4691 22.8852 63.3891 23.1812 63.3891C23.8372 63.3891 24.3532 63.6611 24.7292 64.2051C25.1052 64.7491 25.2932 65.4891 25.2932 66.4251C25.2932 67.3531 25.1012 68.0931 24.7172 68.6451ZM22.8212 68.4171C23.2212 68.4171 23.5252 68.2331 23.7332 67.8651C23.9492 67.4891 24.0572 67.0091 24.0572 66.4251C24.0572 65.8411 23.9492 65.3651 23.7332 64.9971C23.5252 64.6291 23.2212 64.4451 22.8212 64.4451C22.5972 64.4451 22.3772 64.5211 22.1612 64.6731C21.9532 64.8251 21.7972 65.0131 21.6932 65.2371V67.6131C21.7972 67.8371 21.9532 68.0291 22.1612 68.1891C22.3772 68.3411 22.5972 68.4171 22.8212 68.4171ZM30.4554 68.5971C30.0154 69.1811 29.4034 69.4731 28.6194 69.4731C27.8354 69.4731 27.2194 69.1811 26.7714 68.5971C26.3314 68.0131 26.1114 67.2891 26.1114 66.4251C26.1114 65.5611 26.3314 64.8411 26.7714 64.2651C27.2114 63.6811 27.8274 63.3891 28.6194 63.3891C29.4114 63.3891 30.0274 63.6811 30.4674 64.2651C30.9074 64.8411 31.1274 65.5611 31.1274 66.4251C31.1274 67.2891 30.9034 68.0131 30.4554 68.5971ZM27.6714 67.8411C27.8874 68.2251 28.2034 68.4171 28.6194 68.4171C29.0354 68.4171 29.3514 68.2251 29.5674 67.8411C29.7834 67.4571 29.8914 66.9851 29.8914 66.4251C29.8914 65.8651 29.7834 65.3971 29.5674 65.0211C29.3514 64.6371 29.0354 64.4451 28.6194 64.4451C28.2034 64.4451 27.8874 64.6371 27.6714 65.0211C27.4554 65.3971 27.3474 65.8651 27.3474 66.4251C27.3474 66.9851 27.4554 67.4571 27.6714 67.8411ZM33.4588 69.3291H32.2588V63.5331H33.4588V65.8131H35.4748V63.5331H36.6628V69.3291H35.4748V66.8571H33.4588V69.3291ZM40.399 69.4731C39.607 69.4731 38.975 69.1931 38.503 68.6331C38.031 68.0731 37.795 67.3371 37.795 66.4251C37.795 65.5611 38.019 64.8411 38.467 64.2651C38.923 63.6811 39.527 63.3891 40.279 63.3891C41.039 63.3891 41.631 63.6771 42.055 64.2531C42.479 64.8291 42.691 65.5691 42.691 66.4731V66.8211H39.007C39.031 67.3171 39.175 67.7211 39.439 68.0331C39.703 68.3371 40.063 68.4891 40.519 68.4891C41.039 68.4891 41.475 68.2811 41.827 67.8651L42.403 68.5851C41.883 69.1771 41.215 69.4731 40.399 69.4731ZM41.527 65.9691C41.519 65.5451 41.411 65.1731 41.203 64.8531C41.003 64.5251 40.691 64.3611 40.267 64.3611C39.859 64.3611 39.551 64.5251 39.343 64.8531C39.135 65.1811 39.019 65.5531 38.995 65.9691H41.527ZM44.5586 69.3291H43.1546L45.1106 66.1371L43.1906 63.5331H44.5826L46.1786 65.7651V63.5331H47.3786V65.7651L48.9746 63.5331H50.3666L48.4466 66.1371L50.4026 69.3291H48.9986L47.6306 66.9051L47.3786 67.2411V69.3291H46.1786V67.2411L45.9266 66.9051L44.5586 69.3291Z" fill="#444444"/>
<circle cx="114" cy="4.32275" r="4" fill="#444444"/>
<path d="M90.206 20.3228H88.73L90.278 17.0708C89.87 16.9588 89.518 16.7148 89.222 16.3388C88.934 15.9548 88.79 15.4388 88.79 14.7908C88.79 14.0548 89.006 13.4588 89.438 13.0028C89.87 12.5468 90.434 12.3188 91.13 12.3188H93.878V20.3228H92.558V17.2988H91.574L90.206 20.3228ZM91.31 16.1228H92.558V13.4828H91.31C90.958 13.4828 90.678 13.6028 90.47 13.8428C90.262 14.0828 90.158 14.4028 90.158 14.8028C90.158 15.2028 90.262 15.5228 90.47 15.7628C90.678 16.0028 90.958 16.1228 91.31 16.1228ZM99.5804 19.6388C99.2044 20.1908 98.6924 20.4668 98.0444 20.4668C97.3964 20.4668 96.9004 20.1588 96.5564 19.5428V22.5308H95.3564V14.5268H96.5564V15.2948C96.7244 15.0068 96.9404 14.7828 97.2044 14.6228C97.4684 14.4628 97.7484 14.3828 98.0444 14.3828C98.7004 14.3828 99.2164 14.6548 99.5924 15.1988C99.9684 15.7428 100.156 16.4828 100.156 17.4188C100.156 18.3468 99.9644 19.0868 99.5804 19.6388ZM97.6844 19.4108C98.0844 19.4108 98.3884 19.2268 98.5964 18.8588C98.8124 18.4828 98.9204 18.0028 98.9204 17.4188C98.9204 16.8348 98.8124 16.3588 98.5964 15.9908C98.3884 15.6228 98.0844 15.4388 97.6844 15.4388C97.4604 15.4388 97.2404 15.5148 97.0244 15.6668C96.8164 15.8188 96.6604 16.0068 96.5564 16.2308V18.6068C96.6604 18.8308 96.8164 19.0228 97.0244 19.1828C97.2404 19.3348 97.4604 19.4108 97.6844 19.4108ZM105.319 19.5908C104.879 20.1748 104.267 20.4668 103.483 20.4668C102.699 20.4668 102.083 20.1748 101.635 19.5908C101.195 19.0068 100.975 18.2828 100.975 17.4188C100.975 16.5548 101.195 15.8348 101.635 15.2588C102.075 14.6748 102.691 14.3828 103.483 14.3828C104.275 14.3828 104.891 14.6748 105.331 15.2588C105.771 15.8348 105.991 16.5548 105.991 17.4188C105.991 18.2828 105.767 19.0068 105.319 19.5908ZM102.535 18.8348C102.751 19.2188 103.067 19.4108 103.483 19.4108C103.899 19.4108 104.215 19.2188 104.431 18.8348C104.647 18.4508 104.755 17.9788 104.755 17.4188C104.755 16.8588 104.647 16.3908 104.431 16.0148C104.215 15.6308 103.899 15.4388 103.483 15.4388C103.067 15.4388 102.751 15.6308 102.535 16.0148C102.319 16.3908 102.211 16.8588 102.211 17.4188C102.211 17.9788 102.319 18.4508 102.535 18.8348ZM111.142 19.6868C110.726 20.2068 110.138 20.4668 109.378 20.4668C108.618 20.4668 108.002 20.1828 107.53 19.6148C107.066 19.0388 106.834 18.3068 106.834 17.4188C106.834 16.5308 107.066 15.8028 107.53 15.2348C107.994 14.6668 108.61 14.3828 109.378 14.3828C110.138 14.3828 110.726 14.6428 111.142 15.1628L110.53 15.9788C110.25 15.6188 109.906 15.4388 109.498 15.4388C109.058 15.4388 108.71 15.6268 108.454 16.0028C108.198 16.3788 108.07 16.8508 108.07 17.4188C108.07 17.9948 108.198 18.4708 108.454 18.8468C108.71 19.2228 109.058 19.4108 109.498 19.4108C109.898 19.4108 110.242 19.2308 110.53 18.8708L111.142 19.6868ZM111.611 20.4668V19.4468C111.859 19.4468 112.051 19.3148 112.187 19.0508C112.331 18.7868 112.435 18.2908 112.499 17.5628L112.763 14.5268H116.507V20.3228H115.319V15.5708H113.855L113.699 17.6588C113.619 18.6828 113.407 19.4068 113.063 19.8308C112.719 20.2548 112.235 20.4668 111.611 20.4668ZM122.115 20.3228H120.927V19.7348C120.575 20.2228 120.067 20.4668 119.403 20.4668C118.907 20.4668 118.487 20.2948 118.143 19.9508C117.799 19.5988 117.627 19.1268 117.627 18.5348C117.627 17.9428 117.799 17.4828 118.143 17.1548C118.487 16.8188 118.907 16.6508 119.403 16.6508C120.083 16.6508 120.591 16.8828 120.927 17.3468V16.5068C120.927 16.1548 120.827 15.8828 120.627 15.6908C120.435 15.4988 120.159 15.4028 119.799 15.4028C119.271 15.4028 118.791 15.6228 118.359 16.0628L117.891 15.2228C118.451 14.6628 119.159 14.3828 120.015 14.3828C120.655 14.3828 121.163 14.5468 121.539 14.8748C121.923 15.1948 122.115 15.6908 122.115 16.3628V20.3228ZM119.835 19.6388C120.315 19.6388 120.679 19.4268 120.927 19.0028V18.1268C120.815 17.9268 120.659 17.7708 120.459 17.6588C120.259 17.5388 120.051 17.4788 119.835 17.4788C119.531 17.4788 119.287 17.5788 119.103 17.7788C118.919 17.9788 118.827 18.2388 118.827 18.5588C118.827 18.8788 118.919 19.1388 119.103 19.3388C119.287 19.5388 119.531 19.6388 119.835 19.6388ZM126.276 20.3228H123.528V14.5268H126.204C126.772 14.5268 127.204 14.6668 127.5 14.9468C127.804 15.2188 127.956 15.5708 127.956 16.0028C127.956 16.3388 127.864 16.6228 127.68 16.8548C127.504 17.0788 127.264 17.2348 126.96 17.3228C127.28 17.3948 127.544 17.5668 127.752 17.8388C127.96 18.1028 128.064 18.4068 128.064 18.7508C128.064 19.2228 127.912 19.6028 127.608 19.8908C127.312 20.1788 126.868 20.3228 126.276 20.3228ZM126.024 19.3148C126.568 19.3148 126.84 19.0748 126.84 18.5948C126.84 18.3868 126.768 18.2108 126.624 18.0668C126.488 17.9228 126.288 17.8508 126.024 17.8508H124.728V19.3148H126.024ZM125.976 16.8548C126.472 16.8548 126.72 16.6348 126.72 16.1948C126.72 15.9948 126.656 15.8348 126.528 15.7148C126.408 15.5868 126.224 15.5228 125.976 15.5228H124.728V16.8548H125.976ZM128.884 20.4668V19.4468C129.132 19.4468 129.324 19.3148 129.46 19.0508C129.604 18.7868 129.708 18.2908 129.772 17.5628L130.036 14.5268H133.78V20.3228H132.592V15.5708H131.128L130.972 17.6588C130.892 18.6828 130.68 19.4068 130.336 19.8308C129.992 20.2548 129.508 20.4668 128.884 20.4668ZM135.2 14.5268H136.4V16.6508H137.684C138.316 16.6508 138.796 16.8268 139.124 17.1788C139.46 17.5308 139.628 17.9708 139.628 18.4988C139.628 19.0188 139.456 19.4548 139.112 19.8068C138.776 20.1508 138.3 20.3228 137.684 20.3228H135.2V14.5268ZM137.54 17.6588H136.4V19.3148H137.54C137.812 19.3148 138.024 19.2388 138.176 19.0868C138.328 18.9348 138.404 18.7348 138.404 18.4868C138.404 18.2468 138.328 18.0508 138.176 17.8988C138.024 17.7388 137.812 17.6588 137.54 17.6588Z" fill="#444444"/>
</svg>
